<svg xmlns="http://www.w3.org/2000/svg" viewBox="0 0 81.02 27"><defs><style>.cls-1{opacity:0.8;}.cls-2{fill:#fff;}</style></defs><g id="Capa_2" data-name="Capa 2"><g id="Capa_1-2" data-name="Capa 1"><g class="cls-1"><path class="cls-2" d="M7.51,21c3.92,0,7.68-3.45,7.5-7.5A7.64,7.64,0,0,0,7.51,6C3.58,6-.18,9.45,0,13.5A7.63,7.63,0,0,0,7.51,21Z"/></g><g class="cls-1"><path class="cls-2" d="M37.51,21c3.92,0,7.68-3.45,7.5-7.5A7.64,7.64,0,0,0,37.51,6c-3.93,0-7.69,3.45-7.5,7.5a7.63,7.63,0,0,0,7.5,7.5Z"/></g><path class="cls-2" d="M67.51,27a14,14,0,0,0,9.54-3.95,13.76,13.76,0,0,0,4-9.55,13.69,13.69,0,0,0-4-9.55A13.51,13.51,0,0,0,58,4a13.75,13.75,0,0,0-4,9.55,13.64,13.64,0,0,0,4,9.55A14,14,0,0,0,67.51,27Z"/></g></g></svg>