<svg xmlns="http://www.w3.org/2000/svg" viewBox="0 0 985.24 1240.27"><defs><style>.cls-1{opacity:0.2;}.cls-2{fill:#659633;fill-rule:evenodd;}</style></defs><g id="Capa_2" data-name="Capa 2"><g id="Capa_1-2" data-name="Capa 1"><g class="cls-1"><path class="cls-2" d="M610.59,759.34l-14.22,11.33A3.7,3.7,0,0,1,591,770l-.83-1.39a3.71,3.71,0,0,1,1.92-5.07l16.75-7.07c.71-.3,1.48-.29,1.79.24l.59,1C611.54,758.18,611.19,758.86,610.59,759.34Z"/><path class="cls-2" d="M609.76,745.88l-15.06-19a4.91,4.91,0,0,1,1-7.15l1.84-1.11a5,5,0,0,1,6.75,2.57l9.4,22.32c.41,1,.4,2-.33,2.4l-1.3.78C611.32,747.16,610.41,746.7,609.76,745.88Z"/><path class="cls-2" d="M614.75,760.73l-5.42,14.17a3.08,3.08,0,0,1-4.16,1.76L604,776a3.11,3.11,0,0,1-.77-4.47l9-12.17c.39-.52.93-.85,1.4-.6l.84.47C615,759.49,615,760.13,614.75,760.73Z"/><path class="cls-2" d="M607.74,755.45l-19.69,2.23a4,4,0,0,1-4.54-3.75l0-1.76a4,4,0,0,1,4.7-3.58l19.55,3.16c.83.14,1.55.58,1.53,1.25l0,1.26C609.3,754.93,608.57,755.36,607.74,755.45Z"/><path class="cls-2" d="M607.16,750.76,586,741.2a4.74,4.74,0,0,1-2.32-6.53l1.1-1.73a4.73,4.73,0,0,1,6.89-.79l17.81,14.92c.77.64,1.21,1.51.8,2.19l-.78,1.23C609.06,751.17,608.08,751.17,607.16,750.76Z"/><path class="cls-2" d="M614.46,742.68l-4.93-24.44a5.07,5.07,0,0,1,4.23-6.11L616,712a5.09,5.09,0,0,1,5,5.53l-1.84,24.87c-.07,1.06-.56,2-1.42,2.05l-1.57.08C615.28,744.59,614.67,743.73,614.46,742.68Z"/><path class="cls-2" d="M620,742.28l9.38-23.78a5.21,5.21,0,0,1,7.05-2.9l2,1.11a5.23,5.23,0,0,1,1.24,7.54l-15.46,20.37c-.66.87-1.6,1.4-2.36,1l-1.4-.78C619.68,744.38,619.63,743.29,620,742.28Z"/><path class="cls-2" d="M625.12,746.11,646,729.79a5.39,5.39,0,0,1,7.81,1.11l1.18,2a5.42,5.42,0,0,1-2.86,7.38l-24.5,10.08c-1,.43-2.15.41-2.61-.37l-.84-1.44C623.7,747.79,624.23,746.8,625.12,746.11Z"/><path class="cls-2" d="M628.86,753.73l28.29-6.66c3.61-.86,7,1.74,7.27,4.69l.25,2.55c.29,3-2.53,6.2-6.25,6l-29-1.21c-1.23,0-2.33-.57-2.43-1.57l-.17-1.82C626.67,754.77,627.65,754,628.86,753.73Z"/><path class="cls-2" d="M628.27,763.37l30,7c3.84.89,5.81,4.94,4.69,7.88l-1,2.54c-1.12,2.93-5.31,4.68-8.77,2.79l-27-14.83c-1.16-.63-2-1.66-1.58-2.64l.7-1.8C625.7,763.31,627,763.06,628.27,763.37Z"/><path class="cls-2" d="M623.93,773l26.6,19.85c3.41,2.54,3.6,7.39,1.23,9.82l-2,2.09c-2.37,2.41-7.28,2.33-9.86-1l-20.29-26.28c-.86-1.13-1.2-2.48-.4-3.3l1.47-1.48C621.42,771.85,622.78,772.16,623.93,773Z"/><path class="cls-2" d="M614.5,779.65,631.8,811c2.2,4,.25,8.88-3.17,10.19l-2.94,1.14c-3.41,1.32-8.19-.94-9.23-5.39l-8.21-34.86c-.35-1.49-.09-3,1.07-3.41l2.09-.81C612.54,777.4,613.76,778.32,614.5,779.65Z"/><path class="cls-2" d="M602.79,782.89l1.74,37.66c.22,4.83-3.91,8.51-7.73,8.16l-3.32-.3c-3.84-.34-7.29-4.71-6.2-9.39l8.49-36.77c.35-1.57,1.3-2.84,2.59-2.73l2.35.22C602,779.85,602.72,781.27,602.79,782.89Z"/><path class="cls-2" d="M590.22,779.5,574.5,817.21c-2,4.82-7.76,6.52-11.35,4.41L560,819.79c-3.6-2.11-4.95-8-1.72-12.07l25.32-32.08c1.07-1.37,2.6-2.19,3.79-1.49l2.22,1.3C590.85,776.17,590.88,777.89,590.22,779.5Z"/><path class="cls-2" d="M579.8,771.81l-31.11,31.66c-4,4-10.47,3.43-13.24-.16l-2.4-3.11c-2.77-3.56-1.76-10,3.15-12.86l38.51-22.11c1.66-.93,3.52-1.14,4.45.06l1.71,2.2C581.79,768.69,581.14,770.45,579.8,771.81Z"/><path class="cls-2" d="M571.92,759.57l-41.34,20.85c-5.29,2.66-11.49-.1-13-4.56L516.22,772c-1.53-4.46,1.62-10.52,7.43-11.67l45.46-8.92c1.92-.39,3.83,0,4.36,1.53l.94,2.74C574.92,757.16,573.69,758.68,571.92,759.57Z"/><path class="cls-2" d="M569.22,745.78l-48.43,3.54c-6.2.46-11.07-4.72-10.76-9.67l.27-4.27c.31-5,5.8-9.54,11.88-8.32l47.61,9.65c2,.42,3.71,1.59,3.61,3.24l-.2,3C573.1,744.66,571.29,745.63,569.22,745.78Z"/><path class="cls-2" d="M572,732l-51.5-18.31c-6.58-2.34-9.26-9.89-6.7-14.84l2.23-4.29c2.54-5,10.29-7.19,16-3.17l44.67,31.53c1.91,1.34,3.11,3.3,2.24,5L577.39,731C576.53,732.62,574.24,732.8,572,732Z"/><path class="cls-2" d="M582.29,718.76,537.78,682c-5.68-4.7-5.6-13.16-1.28-17.15l3.74-3.45c4.34-4,12.83-3.42,17,2.63l33,47.42c1.4,2,1.88,4.42.43,5.75L588,719.65C586.55,721,584.21,720.34,582.29,718.76Z"/><path class="cls-2" d="M596.58,706.59l-30.22-49.18c-3.86-6.29-1.06-14.28,4.32-16.65l4.66-2.06c5.4-2.38,13.26.91,15.28,8l15.85,55.53c.67,2.37.35,4.78-1.45,5.59l-3.33,1.46C599.89,710.07,597.88,708.7,596.58,706.59Z"/><path class="cls-2" d="M616.34,702.1l-10.76-59.94c-1.38-7.65,4.07-14.41,10-14.66l5.1-.23c5.88-.25,12.06,6,11.43,13.75l-4.92,60.61c-.22,2.59-1.38,4.83-3.35,4.91l-3.62.16C618.2,706.78,616.81,704.66,616.34,702.1Z"/><path class="cls-2" d="M634.29,703.16l12.31-61.71c1.57-7.89,9.37-12.32,15.12-10.34l5,1.72c5.76,2,9.34,10.33,5.8,17.54L644.84,706.8c-1.18,2.41-3.14,4.13-5.06,3.47l-3.55-1.22C634.3,708.39,633.76,705.81,634.29,703.16Z"/><path class="cls-2" d="M651.1,711.05l33.48-53.28c4.28-6.82,13.15-8.18,17.81-4.29l4,3.39c4.68,3.9,5,13-.83,18.46L659.66,718.2c-2,1.84-4.4,2.74-6,1.43l-2.87-2.39C649.25,715.93,649.65,713.33,651.1,711.05Z"/><path class="cls-2" d="M666.21,725.74l49.51-38.85c6.33-4.95,15.13-3.24,18.21,2l2.67,4.55c3.08,5.26.35,13.92-7,17.1l-57.73,24.81c-2.46,1.07-5.08,1.1-6.12-.67l-1.89-3.23C662.82,729.71,664.07,727.39,666.21,725.74Z"/><path class="cls-2" d="M675.37,748.9l60.54-24.82c7.73-3.16,16.06,1,17.65,7.18l1.38,5.3c1.59,6.13-3.6,14-11.87,15.1l-64.79,8.49c-2.77.36-5.39-.37-5.92-2.42l-1-3.76C670.85,751.92,672.77,750,675.37,748.9Z"/><path class="cls-2" d="M678,767.84l67.71.88c8.66.12,14.89,7.51,13.91,14l-.83,5.61c-1,6.48-9.11,11.91-17.43,9.59l-65.13-18.18c-2.78-.77-5-2.52-4.66-4.68l.59-4C672.5,768.89,675.1,767.8,678,767.84Z"/><path class="cls-2" d="M672.67,791.51l68,21.14c8.7,2.7,12.77,12,9.85,18.24L748,836.3c-2.9,6.24-12.75,9.29-20.43,4.47L667.33,803c-2.58-1.61-4.27-4-3.31-6.12l1.8-3.84C666.79,790.91,669.77,790.6,672.67,791.51Z"/><path class="cls-2" d="M658.51,812.27l60.26,40.36c7.71,5.16,9,15.42,4.32,20.67l-4,4.54c-4.66,5.26-15.12,5.37-21.23-1.57L650,821.9c-2-2.33-3-5.17-1.44-6.92l2.86-3.24C653,810,655.94,810.54,658.51,812.27Z"/><path class="cls-2" d="M639.81,829l48.87,55.37c6.24,7.07,4.83,17.5-1.1,21.47l-5.16,3.44c-5.94,4-16.28,1.35-20.5-7.07l-33-65.94c-1.41-2.82-1.61-5.85.37-7.19l3.66-2.45C634.93,825.34,637.72,826.66,639.81,829Z"/><path class="cls-2" d="M617,839.42l32,68.11c4.1,8.72-.26,18.51-7.2,20.69l-6,1.89c-7,2.19-16.32-3.31-18-12.75l-13.5-73.92c-.57-3.15.08-6.21,2.41-7l4.28-1.32C613.25,834.43,615.59,836.52,617,839.42Z"/><path class="cls-2" d="M592.4,842.83l9.86,76.55c1.26,9.79-6.07,18-13.53,17.94l-6.47,0c-7.46-.06-14.89-8.37-13.61-18.13l10.07-76.41c.42-3.27,2-6,4.53-6l4.59,0C590.34,836.77,592,839.56,592.4,842.83Z"/><path class="cls-2" d="M567.91,836.57,550,913.14c-2.3,9.8-12.23,15-19.33,12.29l-6.15-2.36c-7.1-2.72-11.23-13.32-6.52-22.16l36.92-69.31c1.58-3,4.1-5,6.48-4.12l4.37,1.67C568.11,830.05,568.69,833.29,567.91,836.57Z"/><path class="cls-2" d="M542.77,823.62,505,896.29c-4.81,9.29-16.17,12-22.65,7.45l-5.6-4c-6.47-4.56-7.91-16.31-.89-24l55-60.5c2.36-2.59,5.43-4,7.6-2.5l4,2.8C544.64,817.1,544.38,820.51,542.77,823.62Z"/><path class="cls-2" d="M519.49,804.55l-56.32,61.51c-7.2,7.86-19.08,7.52-24.24,1.32L434.45,862c-5.16-6.19-3.47-18.13,5.48-23.85l70.1-45c3-1.92,6.39-2.52,8.13-.45l3.17,3.82C523.07,798.62,521.9,801.91,519.49,804.55Z"/><path class="cls-2" d="M503.36,779.54l-71.5,45.71c-9.13,5.82-20.73,2.38-24.18-5.07l-3-6.45c-3.44-7.44,1.34-18.73,11.64-22L497,765.87c3.46-1.1,7-.81,8.11,1.7l2.13,4.58C508.43,774.66,506.42,777.59,503.36,779.54Z"/><path class="cls-2" d="M494,751l-82.33,25.14c-10.52,3.23-20.91-3.31-22.26-11.54l-1.15-7.1c-1.35-8.22,6.41-17.93,17.39-18.35l85.9-3.22c3.67-.14,7,1.11,7.47,3.86l.82,5.06C500.28,747.62,497.53,750,494,751Z"/><path class="cls-2" d="M493.6,720.17l-87.41-.31c-11.17,0-19.3-9.48-18.13-17.86l1-7.26c1.18-8.36,11.6-15.47,22.37-12.57l84.29,22.63c3.61,1,6.47,3.19,6.08,6l-.72,5.15C500.71,718.76,497.33,720.18,493.6,720.17Z"/><path class="cls-2" d="M500.47,689.67l-85.39-25c-10.91-3.2-16.19-14.74-12.66-22.6l3-6.8c3.51-7.85,15.74-11.84,25.43-6l76,46c3.25,2,5.43,4.94,4.25,7.58L509,687.67C507.81,690.3,504.12,690.74,500.47,689.67Z"/><path class="cls-2" d="M518,659.2l-80-44c-10.23-5.63-12.94-18.35-7.68-25.44l4.55-6.14c5.26-7.1,18.39-8.39,26.81-.35l65.95,62.93c2.81,2.68,4.33,6.15,2.56,8.52L527,659.08C525.23,661.45,521.44,661.09,518,659.2Z"/><path class="cls-2" d="M539.51,636l-65.69-65.79c-8.39-8.41-7.42-21.64-.26-27.07l6.2-4.72c7.15-5.43,20.37-3,26.32,7.3l46.57,80.31c2,3.43,2.5,7.26.09,9.08l-4.41,3.34C545.94,640.29,542.33,638.85,539.51,636Z"/><path class="cls-2" d="M571,617.34,518.42,537c-6.72-10.28-3-23.43,5.41-27.43l7.27-3.45c8.38-4,21.21,1.29,25,12.9l30.2,91c1.3,3.89,1,7.86-1.81,9.19l-5.16,2.45C576.57,623,573.23,620.78,571,617.34Z"/><path class="cls-2" d="M603.35,608.68l-34.87-94c-4.46-12,3.27-24.67,13.5-26.89l8.86-1.94c10.22-2.22,22.7,6,23.67,18.8l7.59,99.94c.32,4.27-1.1,8.26-4.54,9L611.28,615C607.85,615.73,604.83,612.71,603.35,608.68Z"/><path class="cls-2" d="M637.72,606.3,626.84,501.76c-1.4-13.37,9.77-24.2,20.72-23.79l9.5.35c11,.41,21.47,12,19.14,25.27L657.84,607.05c-.79,4.43-3.28,8.11-7,8l-6.75-.25C640.47,614.64,638.2,610.79,637.72,606.3Z"/><path class="cls-2" d="M669.67,617.43,687.8,501.2c2.32-14.86,18.34-23,30.86-19.05l10.83,3.4c12.49,3.94,21.2,19.84,14.62,33.35l-51.5,105.74c-2.2,4.52-6.15,7.71-10.34,6.39l-7.69-2.42C670.38,627.29,668.88,622.42,669.67,617.43Z"/><path class="cls-2" d="M705.42,635.25,753.5,518.6c6.16-14.91,25.69-18.71,38.45-10.89l11,6.77c12.75,7.81,18.43,27.09,7.94,39.32l-82.12,95.78c-3.52,4.1-8.62,6.28-12.89,3.66l-7.86-4.82C703.8,645.81,703.36,640.25,705.42,635.25Z"/><path class="cls-2" d="M737.65,662l89-105.39c11.38-13.47,33-10.89,43.67,1.52l9.24,10.74c10.68,12.39,10.13,34.36-4.87,43.58l-117.5,72.29c-5,3.09-11.06,3.66-14.64-.49L736,676.63C732.43,672.47,733.82,666.53,737.65,662Z"/><path class="cls-2" d="M765.89,700.52l122.19-85.2c15.63-10.89,37.47-2.19,45.14,13.71l6.66,13.78c7.69,15.89,1,38.67-17.19,44.13L780,729.7c-6.1,1.83-12.55.74-15.13-4.59l-4.72-9.79C757.54,710,760.65,704.18,765.89,700.52Z"/><path class="cls-2" d="M779.61,746.3l154.78-45.81c19.8-5.86,38.77,11.5,40.8,31.32L977,749c2,19.83-13,41.68-33.44,40.76l-160.18-7.08c-6.85-.3-13-3.85-13.67-10.5L768.4,760C767.73,753.32,773,748.27,779.61,746.3Z"/><path class="cls-2" d="M776.64,797l175.54,4.35c22.46.57,36.58,25.84,32.3,47.88l-3.71,19.09c-4.29,22-26.91,40.36-47.87,32.29L768.78,837.38c-7-2.7-12.26-8.66-10.84-16l2.64-13.56C762,800.38,769.11,796.75,776.64,797Z"/><path class="cls-2" d="M761.14,854.3,936,912.81c22.35,7.48,28.72,37.18,17.63,58l-9.6,18c-11.11,20.8-39.47,32.2-58,17.64l-145.19-114c-6.2-4.87-9.63-12.46-5.91-19.44l6.82-12.79C745.42,853.23,753.66,851.78,761.14,854.3Z"/><path class="cls-2" d="M725.59,901.61l156.32,118.81c20,15.19,16.27,47.34-2,64.53L864,1099.83c-18.3,17.18-50.81,19-64.52-2L692,933.14c-4.6-7-5.46-15.88.67-21.64L704,900.93C710.09,895.17,718.88,896.52,725.59,901.61Z"/><path class="cls-2" d="M670.64,940.7l120.11,175.14c15.36,22.4.61,54.15-24,65.56l-21.35,9.9c-24.63,11.41-58.61,2.22-65.55-24L625.44,961.65c-2.33-8.8-.2-18.15,8.06-22l15.16-7C656.92,928.81,665.49,933.19,670.64,940.7Z"/><path class="cls-2" d="M606.62,961l61.87,218.11c7.9,27.88-17.83,55-46.64,58.13l-25,2.75c-28.8,3.16-60.06-17.72-58.14-46.65l15-226.54c.64-9.69,6-18.43,15.64-19.49l17.74-1.94C596.79,944.26,604,951.62,606.62,961Z"/><path class="cls-2" d="M539.15,957.74l-21.56,232.34c-2.76,29.73-37.53,46.17-66.36,38.51l-25-6.63c-28.85-7.66-51.08-39.3-38.51-66.37l98.51-211.9c4.22-9.07,12.58-15.48,22.25-12.92l17.75,4.73C535.91,938.06,540.07,947.78,539.15,957.74Z"/><path class="cls-2" d="M470.47,926.3,371,1154.15c-12.74,29.14-53.42,34.15-80,16.75l-23.07-15.06c-26.6-17.39-38.52-56.85-16.75-80L421.64,894.4c7.29-7.76,17.9-11.46,26.83-5.63l16.37,10.71C473.77,905.31,474.73,916.54,470.47,926.3Z"/><path class="cls-2" d="M409.7,874.57,233.52,1068.49c-22.52,24.79-64.83,16.08-85.54-10.24l-17.92-22.83c-20.7-26.33-19.31-69.75,10.24-85.53L371.72,826.24c9.91-5.28,21.74-5.4,28.68,3.43l12.74,16.2C420.09,854.71,417.27,866.25,409.7,874.57Z"/><path class="cls-2" d="M348.68,741.82,74.23,784.75c-35.1,5.49-52.06,48-40.81,81.72l9.76,29.19c11.24,33.68,50.5,57.76,81.71,40.8L369.32,803.62c10.46-5.68,17.46-16.1,13.68-27.39l-6.91-20.74C372.3,744.2,360.45,740,348.68,741.82Z"/><path class="cls-2" d="M356.7,656.43,71.61,596.86c-36.46-7.62-68.86,27.83-70.29,65L.05,694.12c-1.45,37.22,28.15,75.37,65,70.29l289-39.71c12.35-1.7,23.07-9.32,23.55-21.79l.9-22.91C379,667.51,368.92,659,356.7,656.43Z"/><path class="cls-2" d="M393.18,571.69l-258-156.24c-33-20-76.83,3.5-91,39.36L31.77,485.87c-14.21,35.86,1.58,83.31,39.37,91l296,60.57c12.65,2.59,25.76-1.17,30.53-13.2l8.74-22.06C411.14,590.18,404.25,578.38,393.18,571.69Z"/><path class="cls-2" d="M460,493.44l-205-237.09c-26.22-30.31-77.06-21.15-102.6,9.75l-22.12,26.75c-25.52,30.9-25.14,82.86,9.74,102.6L413.13,550.11c11.67,6.61,25.83,7.08,34.39-3.27l15.71-19C471.79,517.48,468.76,503.59,460,493.44Z"/><path class="cls-2" d="M754.52,438.48,857.12,98c13.11-43.54-26.57-86.69-71.68-92.39L746.38.66C701.26-5,651.71,26.93,654,72.34L671.77,428c.75,15.22,8.89,29.06,24,31l27.76,3.5C738.67,464.4,750.12,453.06,754.52,438.48Z"/><path class="cls-2" d="M650.6,427.92,633.78,84.37c-2.16-43.93-51.93-70.86-94.57-61.85l-36.94,7.8c-42.61,9-77.15,53.84-60.46,94.63L572.38,444.44c5.59,13.67,17.41,23.76,31.71,20.75l26.24-5.55C644.62,456.6,651.33,442.65,650.6,427.92Z"/><path class="cls-2" d="M551.34,444.43,422.9,137.78c-16.44-39.22-70.72-46.75-106.66-24l-31.11,19.68c-35.93,22.71-52.68,75.22-24,106.64l224.32,246c9.6,10.51,23.7,15.66,35.75,8.05l22.11-14C555.32,472.56,556.84,457.57,551.34,444.43Z"/></g></g></g></svg>