<svg xmlns="http://www.w3.org/2000/svg" viewBox="0 0 1119 1053"><defs><style>.cls-1{fill:#ff9;}.cls-2,.cls-3{font-size:48px;}.cls-2{fill:#659633;font-family:Cunia;}.cls-3{font-family:Candara-Bold, Candara;font-weight:700;}.cls-10,.cls-11,.cls-13,.cls-4,.cls-5,.cls-7,.cls-8{fill:none;}.cls-4{stroke:#000;}.cls-10,.cls-11,.cls-12,.cls-13,.cls-4,.cls-5,.cls-6,.cls-7,.cls-8,.cls-9{stroke-miterlimit:10;}.cls-10,.cls-13,.cls-4,.cls-7{stroke-width:4px;}.cls-5,.cls-7{stroke:#8cc63f;}.cls-11,.cls-5,.cls-8{stroke-width:6px;}.cls-6{fill:#8cc63f;stroke:#8dc046;}.cls-12,.cls-6,.cls-9{stroke-width:3px;}.cls-10,.cls-13,.cls-7{stroke-linecap:round;}.cls-10,.cls-7{fill-rule:evenodd;}.cls-10,.cls-8,.cls-9{stroke:#c61e2b;}.cls-9{fill:#c61e2b;}.cls-11,.cls-12,.cls-13{stroke:#ef910a;}.cls-12{fill:#ef910a;}</style></defs><g id="Capa_2" data-name="Capa 2"><g id="Capa_1-2" data-name="Capa 1"><rect class="cls-1" width="1119" height="1033" rx="62.38"/><text class="cls-2" transform="translate(67.19 131.31)">Servicio / Service</text><text class="cls-3" transform="translate(64.73 268.14)">Tiempo del servicio<tspan x="0" y="47">Service time</tspan><tspan x="0" y="141">Amabilidad / Kindness</tspan><tspan x="0" y="235">Relación calidad-precio</tspan><tspan x="0" y="282">Quality price-relationship</tspan><tspan x="0" y="376">Atención del personal</tspan><tspan x="0" y="423">Care staff</tspan><tspan x="0" y="517">Dominio del idioma</tspan><tspan x="0" y="564">Language skills</tspan><tspan x="0" y="658">Apariencia del personal</tspan><tspan x="0" y="705">Personal Appearance</tspan></text><rect class="cls-4" x="660.5" y="227.5" width="58" height="58"/><rect class="cls-4" x="818.5" y="227.5" width="58" height="58"/><rect class="cls-4" x="976.5" y="227.5" width="58" height="58"/><rect class="cls-4" x="661" y="357" width="58" height="58"/><rect class="cls-4" x="819" y="357" width="58" height="58"/><rect class="cls-4" x="977" y="357" width="58" height="58"/><rect class="cls-4" x="661.5" y="486.5" width="58" height="58"/><rect class="cls-4" x="819.5" y="486.5" width="58" height="58"/><rect class="cls-4" x="977.5" y="486.5" width="58" height="58"/><rect class="cls-4" x="662" y="616" width="58" height="58"/><rect class="cls-4" x="820" y="616" width="58" height="58"/><rect class="cls-4" x="978" y="616" width="58" height="58"/><rect class="cls-4" x="662.5" y="745.5" width="58" height="58"/><rect class="cls-4" x="820.5" y="745.5" width="58" height="58"/><rect class="cls-4" x="978.5" y="745.5" width="58" height="58"/><rect class="cls-4" x="663" y="875" width="58" height="58"/><rect class="cls-4" x="821" y="875" width="58" height="58"/><rect class="cls-4" x="979" y="875" width="58" height="58"/><circle class="cls-5" cx="690.72" cy="118.31" r="40.82"/><circle class="cls-6" cx="674.65" cy="106.64" r="4.44"/><circle class="cls-6" cx="706.79" cy="106.64" r="4.44"/><path class="cls-7" d="M670.27,126.81a21.19,21.19,0,0,0,41,0"/><circle class="cls-8" cx="1001.18" cy="118.31" r="40.82"/><circle class="cls-9" cx="985.11" cy="106.64" r="4.44"/><circle class="cls-9" cx="1017.25" cy="106.64" r="4.44"/><path class="cls-10" d="M1021.7,140.5a21.19,21.19,0,0,0-41,0"/><circle class="cls-11" cx="845.95" cy="118.31" r="40.82"/><circle class="cls-12" cx="829.88" cy="106.64" r="4.44"/><circle class="cls-12" cx="862.02" cy="106.64" r="4.44"/><line class="cls-13" x1="825.17" y1="130.91" x2="866.47" y2="130.91"/></g></g></svg>