<svg xmlns="http://www.w3.org/2000/svg" viewBox="0 0 997.28 5134.56"><defs><style>.cls-1{font-size:40px;fill:#659633;font-family:Cunia;}.cls-2{letter-spacing:0em;}.cls-3{letter-spacing:-0.01em;}.cls-4{letter-spacing:-0.03em;}.cls-28,.cls-5{letter-spacing:0em;}.cls-6{opacity:0.7;}.cls-27,.cls-7{letter-spacing:0em;}.cls-23,.cls-8{font-family:Candara;}.cls-12,.cls-22,.cls-24,.cls-8{fill:#000;}.cls-10,.cls-14,.cls-20,.cls-21,.cls-23,.cls-9{fill:#4d4d4d;}.cls-9{letter-spacing:-0.04em;}.cls-11,.cls-19,.cls-24{font-family:Candara-Bold, Candara;font-weight:700;}.cls-12,.cls-18,.cls-19,.cls-21{font-size:36px;}.cls-12,.cls-21{font-family:Candara-Italic, Candara;font-style:italic;}.cls-13,.cls-14{letter-spacing:-0.03em;}.cls-15,.cls-27,.cls-28,.cls-31,.cls-32,.cls-36,.cls-37{opacity:0.8;}.cls-16{letter-spacing:-0.02em;}.cls-17{letter-spacing:-0.02em;}.cls-20,.cls-25{letter-spacing:-0.06em;}.cls-26{letter-spacing:-0.02em;}.cls-29{letter-spacing:-0.02em;}.cls-30{letter-spacing:0em;}.cls-31{letter-spacing:-0.05em;}.cls-32{letter-spacing:0em;}.cls-33,.cls-37{letter-spacing:-0.01em;}.cls-34{letter-spacing:0em;}.cls-35{letter-spacing:0em;}.cls-36{letter-spacing:0em;}</style></defs><g id="Capa_2" data-name="Capa 2"><g id="Capa_1-2" data-name="Capa 1"><text class="cls-1" transform="translate(1.02 36.36)">E<tspan class="cls-2" x="25.68" y="0">n</tspan><tspan x="54.28" y="0">t</tspan><tspan class="cls-3" x="79.68" y="0">r</tspan><tspan x="107.12" y="0">a</tspan><tspan class="cls-2" x="135.92" y="0">n</tspan><tspan x="164.52" y="0">tes </tspan><tspan class="cls-3" x="250.64" y="0">F</tspan><tspan x="275.12" y="0">ríos </tspan><tspan class="cls-4" x="380.24" y="0">y</tspan><tspan x="406.59" y="0" xml:space="preserve"> Calie</tspan><tspan class="cls-5" x="534.87" y="0">n</tspan><tspan x="563.47" y="0">tes </tspan><tspan class="cls-6"><tspan x="0" y="47">Cold and H</tspan><tspan class="cls-7" x="242.72" y="47">o</tspan><tspan x="271.27" y="47">t Starters</tspan></tspan><tspan class="cls-8"><tspan x="0" y="137">Ensalada de frutas tropicales / </tspan><tspan class="cls-9" x="511.74" y="137">T</tspan><tspan class="cls-10" x="530.55" y="137" xml:space="preserve">ropical  fruits salad</tspan><tspan x="847.05" y="137" xml:space="preserve"> ... </tspan><tspan class="cls-11" x="894.63" y="137">70.00</tspan><tspan x="0" y="227">Ensalada de la casa / </tspan><tspan class="cls-10" x="348.75" y="227">House salad</tspan><tspan x="551.74" y="227" xml:space="preserve">  ............................   </tspan><tspan class="cls-11" x="877.29" y="227">280.00</tspan></tspan><tspan class="cls-12"><tspan x="0" y="287">(</tspan><tspan class="cls-13" x="12.71" y="287">V</tspan><tspan x="31.94" y="287">egetales, jamón y queso / </tspan><tspan class="cls-14" x="407.13" y="287">V</tspan><tspan class="cls-10" x="426.36" y="287">egetable, ham and cheese</tspan><tspan x="805.64" y="287">)</tspan></tspan><tspan class="cls-8"><tspan x="0" y="377">Rollitos de jamón y queso / </tspan><tspan class="cls-10" x="459.3" y="377">Ham and cheese rolls </tspan><tspan x="825.41" y="377">.... </tspan><tspan class="cls-11" x="874.39" y="377">470.00</tspan><tspan x="0" y="467">Dados de queso / </tspan><tspan class="cls-10" x="297.66" y="467">Cheese dices</tspan><tspan x="514.38" y="467" xml:space="preserve">  .................................. </tspan><tspan class="cls-11" x="883.05" y="467">235.00</tspan><tspan x="0" y="557">Bolitas de queso /</tspan><tspan class="cls-10" x="296.93" y="557" xml:space="preserve"> Cheese of balls</tspan><tspan x="557.75" y="557" xml:space="preserve"> ..............................  </tspan><tspan class="cls-11" x="886.11" y="557">235.00</tspan><tspan x="0" y="647">Croquetas / </tspan><tspan class="cls-10" x="201.46" y="647">Croquette</tspan><tspan x="373.4" y="647" xml:space="preserve">  .................................................  </tspan><tspan class="cls-11" x="901.91" y="647">20.00</tspan><tspan x="0" y="737">Consomé mixto / </tspan><tspan class="cls-10" x="293.38" y="737">Mixed consomé</tspan><tspan x="562.05" y="737" xml:space="preserve">  ............................... </tspan><tspan class="cls-11" x="900.49" y="737">80.00</tspan></tspan><tspan class="cls-12"><tspan x="0" y="797">(Caldo de res con vegetales / </tspan><tspan class="cls-10" x="421.93" y="797">Beef soup with vegetables</tspan><tspan x="807.4" y="797">)</tspan></tspan><tspan x="0" y="951">Especialidad de la Casa </tspan><tspan class="cls-15"><tspan x="0" y="998">Ou</tspan><tspan class="cls-16" x="57.72" y="998">r</tspan><tspan x="84.76" y="998" xml:space="preserve"> specialt</tspan><tspan class="cls-17" x="292.12" y="998">y</tspan><tspan x="318.8" y="998">s</tspan></tspan><tspan class="cls-8"><tspan x="0" y="1088">Pierna de cerdo asada al carbón / </tspan><tspan class="cls-10" x="562.42" y="1088">Roasted pork</tspan><tspan class="cls-18" x="789.22" y="1088" xml:space="preserve">  ........  </tspan><tspan class="cls-19" x="893" y="1088">850.00</tspan></tspan><tspan class="cls-12"><tspan x="0" y="1148">(Pierna de cerdo asada al carbón macerado con sal, ajo, pimienta, </tspan><tspan x="0" y="1208">comino, jugo de naranja agria / </tspan><tspan class="cls-10" x="457.88" y="1208">Pork slices with garlic, peppe</tspan><tspan class="cls-20" x="881.63" y="1208">r</tspan><tspan class="cls-10" x="892.6" y="1208">, </tspan></tspan><tspan class="cls-21"><tspan x="0" y="1268">cumin and orange juice</tspan><tspan class="cls-22" x="338.7" y="1268">)</tspan></tspan><tspan x="0" y="1422">Platos principales / </tspan><tspan class="cls-15" x="477.87" y="1422">Main dishes</tspan><tspan class="cls-8"><tspan x="0" y="1512">Masas de cerdo fritas / </tspan><tspan class="cls-10" x="387.81" y="1512">Frieds pork chuncks</tspan><tspan x="722.36" y="1512" xml:space="preserve">  ...........   </tspan><tspan class="cls-11" x="876.58" y="1512">850.00</tspan><tspan x="0" y="1602">Costilla de cerdo asada / </tspan><tspan class="cls-10" x="413.46" y="1602">Roasted pork rib</tspan><tspan x="694.04" y="1602" xml:space="preserve"> ...............  </tspan><tspan class="cls-11" x="871.23" y="1602">450.00</tspan><tspan x="0" y="1692">Filete de pescado a la plancha / </tspan><tspan class="cls-10" x="528.79" y="1692">Grilled fish fillet</tspan><tspan x="789.65" y="1692" xml:space="preserve"> .....   </tspan><tspan class="cls-11" x="874.73" y="1692">450.00</tspan><tspan x="0" y="1782">Ruedas de pescado fritas / </tspan><tspan class="cls-10" x="449.9" y="1782">Fried fish wheel</tspan><tspan x="714.84" y="1782" xml:space="preserve">  ............. </tspan><tspan class="cls-11" x="871.88" y="1782" xml:space="preserve"> 550.00</tspan><tspan x="0" y="1872">Pollo asado al carbón / </tspan><tspan class="cls-10" x="386.43" y="1872">Roasted chicken style</tspan><tspan x="751.23" y="1872" xml:space="preserve">  ........   </tspan><tspan class="cls-11" x="875.21" y="1872">550.00</tspan></tspan><tspan class="cls-12"><tspan x="0" y="1932">(Pollo asado al carbón macerado con sal, ajo, pimienta, comino, </tspan><tspan x="0" y="1992">jugo de naranja agria / </tspan><tspan class="cls-10" x="332.16" y="1992">Chicken with garlic, peppe</tspan><tspan class="cls-20" x="716.47" y="1992">r</tspan><tspan class="cls-10" x="727.44" y="1992">, cumin and </tspan></tspan><tspan class="cls-21"><tspan x="0" y="2052">orange juice</tspan><tspan class="cls-22" x="178.52" y="2052">)</tspan></tspan><tspan class="cls-8"><tspan x="0" y="2142">Pollo frito a la Criolla / </tspan><tspan class="cls-10" x="374.55" y="2142">Chicken fried, Creole style</tspan><tspan x="809.86" y="2142" xml:space="preserve"> .... </tspan><tspan class="cls-11" x="867.52" y="2142" xml:space="preserve"> 550.00</tspan><tspan x="0" y="2232">Suprema de pollo al ajillo / </tspan><tspan class="cls-10" x="448.18" y="2232">Chicken supreme in garlic</tspan></tspan><tspan class="cls-23"><tspan x="0" y="2322">seasoned</tspan><tspan class="cls-22" x="160.21" y="2322" xml:space="preserve">  ...................................................................  </tspan><tspan class="cls-24" x="870.14" y="2322">500.00</tspan></tspan><tspan class="cls-8"><tspan class="cls-25" x="0" y="2412">T</tspan><tspan x="18.01" y="2412">ernera guisada / </tspan><tspan class="cls-14" x="295.16" y="2412">V</tspan><tspan class="cls-10" x="316.15" y="2412">eal in spicy tomato sauce</tspan><tspan x="737.07" y="2412" xml:space="preserve">  ........... </tspan><tspan class="cls-11" x="873.95" y="2412">380.00</tspan><tspan x="0" y="2502">Ropa vieja / </tspan><tspan class="cls-10" x="201.91" y="2502">Minced beef</tspan><tspan x="412.54" y="2502" xml:space="preserve">   ........................................   </tspan><tspan class="cls-11" x="867.7" y="2502">380.00</tspan><tspan x="0" y="2592">Chilindrón de cordero / </tspan><tspan class="cls-10" x="393.63" y="2592">Lamb in tomato and pepper sauce</tspan><tspan x="968.96" y="2592"> </tspan><tspan x="0" y="2682">...................................................................................... </tspan><tspan class="cls-11" x="875.39" y="2682">850.00</tspan></tspan><tspan x="0" y="2823">Hu</tspan><tspan class="cls-26" x="59.04" y="2823">ev</tspan><tspan x="111" y="2823">os /</tspan><tspan class="cls-15" x="196.24" y="2823"> </tspan><tspan class="cls-27" x="204.64" y="2823">E</tspan><tspan class="cls-15" x="230.24" y="2823">ggs</tspan><tspan class="cls-8"><tspan x="0" y="2913">Huevos fritos / </tspan><tspan class="cls-10" x="252.95" y="2913">Fried eggs</tspan><tspan x="427.07" y="2913" xml:space="preserve">  ...........................................  </tspan><tspan class="cls-11" x="895.12" y="2913">40.00</tspan><tspan class="cls-25" x="0" y="3003">T</tspan><tspan x="18.01" y="3003">ortilla natural / </tspan><tspan class="cls-10" x="272.29" y="3003" xml:space="preserve">Natural  omelet</tspan><tspan x="534.63" y="3003" xml:space="preserve">  ................................  </tspan><tspan class="cls-11" x="891.82" y="3003">40.00</tspan></tspan><tspan x="0" y="3144">Guarniciones / </tspan><tspan class="cls-15" x="345.99" y="3144">Accompanime</tspan><tspan class="cls-28" x="649.75" y="3144">n</tspan><tspan class="cls-15" x="678.35" y="3144">ts</tspan><tspan class="cls-8"><tspan x="0" y="3234">Moros y Cristianos / </tspan><tspan class="cls-10" x="338.81" y="3234">Rice and black beans mixed</tspan><tspan x="801.89" y="3234" xml:space="preserve">  ....... </tspan><tspan class="cls-11" x="898.46" y="3234">50.00</tspan><tspan x="0" y="3324">Arroz blanco / </tspan><tspan class="cls-10" x="243.36" y="3324">Boiled rice</tspan><tspan x="419.71" y="3324" xml:space="preserve">  ............................................ </tspan><tspan class="cls-11" x="889.16" y="3324">40.00</tspan><tspan x="0" y="3414">Arroz con vegetales / </tspan><tspan class="cls-10" x="363.3" y="3414">Rice with vegetables</tspan><tspan x="712.05" y="3414" xml:space="preserve">   .............  </tspan><tspan class="cls-11" x="886.43" y="3414">120.00</tspan><tspan x="0" y="3504">Vianda cocida con mojo criollo / </tspan><tspan class="cls-10" x="537.52" y="3504">Boiled vegetable roots </tspan></tspan><tspan class="cls-23"><tspan x="0" y="3594">with creole sausage</tspan><tspan class="cls-22" x="333.83" y="3594" xml:space="preserve"> .................................................... </tspan><tspan class="cls-24" x="875.23" y="3594">100.00</tspan></tspan><tspan class="cls-8"><tspan x="0" y="3684">Vianda frita / </tspan><tspan class="cls-10" x="220.92" y="3684">Fried vegetable roots</tspan><tspan x="581" y="3684" xml:space="preserve">  ..........................  </tspan><tspan class="cls-11" x="877.71" y="3684">100.00</tspan></tspan><tspan x="0" y="3825">Ensalada de</tspan><tspan class="cls-4" x="283.11" y="3825"> </tspan><tspan class="cls-29" x="290.51" y="3825">v</tspan><tspan x="317.59" y="3825">eg</tspan><tspan class="cls-30" x="372.15" y="3825">e</tspan><tspan x="397.79" y="3825">tales /</tspan><tspan class="cls-4" x="558.27" y="3825"> </tspan><tspan class="cls-31" x="565.67" y="3825">V</tspan><tspan class="cls-15" x="591.39" y="3825">eg</tspan><tspan class="cls-32" x="645.95" y="3825">e</tspan><tspan class="cls-15" x="671.59" y="3825">table salads</tspan><tspan class="cls-8"><tspan x="0" y="3915">Ensalada de vegetales / </tspan><tspan class="cls-14" x="399.49" y="3915">V</tspan><tspan class="cls-10" x="420.49" y="3915">egetable salad</tspan><tspan x="664.88" y="3915" xml:space="preserve">   .................. </tspan><tspan class="cls-11" x="880.98" y="3915">100.00</tspan><tspan class="cls-13" x="0" y="4005">V</tspan><tspan x="21" y="4005">egetales salteados / </tspan><tspan class="cls-10" x="361.93" y="4005">Sauté vegetables</tspan><tspan x="651.5" y="4005" xml:space="preserve">  ..................... </tspan><tspan class="cls-11" x="889.16" y="4005">120.00</tspan></tspan><tspan class="cls-33" x="0" y="4142">P</tspan><tspan x="26.92" y="4142">o</tspan><tspan class="cls-34" x="55.56" y="4142">s</tspan><tspan x="82.08" y="4142">t</tspan><tspan class="cls-35" x="107.48" y="4142">r</tspan><tspan x="135.12" y="4142">es /</tspan><tspan class="cls-15" x="217.4" y="4142" xml:space="preserve"> Desserts</tspan><tspan class="cls-8"><tspan x="0" y="4232">Arroz con leche / </tspan><tspan class="cls-10" x="290.96" y="4232">Rice Pudding</tspan><tspan x="510.66" y="4232" xml:space="preserve"> ....................................  </tspan><tspan class="cls-11" x="899.49" y="4232">50.00</tspan><tspan x="0" y="4322">Buñuelo en almíbar / </tspan><tspan class="cls-10" x="353.83" y="4322">Fritter in syrup</tspan><tspan x="600.61" y="4322" xml:space="preserve">  ..........................  </tspan><tspan class="cls-11" x="897.32" y="4322">40.00</tspan><tspan x="0" y="4412">Dulce de frutas en almíbar / </tspan><tspan class="cls-10" x="468.52" y="4412">Fruits in syrup</tspan><tspan x="704.41" y="4412" xml:space="preserve">   ...............  </tspan><tspan class="cls-11" x="898.95" y="4412">50.00</tspan></tspan><tspan x="0" y="4549">Ca</tspan><tspan class="cls-33" x="57.04" y="4549">f</tspan><tspan x="81.64" y="4549">é </tspan><tspan class="cls-4" x="115.72" y="4549">y</tspan><tspan x="142.08" y="4549" xml:space="preserve"> té /</tspan><tspan class="cls-15" x="231.52" y="4549" xml:space="preserve"> C</tspan><tspan class="cls-28" x="268.16" y="4549">o</tspan><tspan class="cls-36" x="296.6" y="4549">f</tspan><tspan class="cls-37" x="321.43" y="4549">f</tspan><tspan class="cls-15" x="346.03" y="4549">e and tea</tspan><tspan class="cls-8"><tspan x="0" y="4639">Café criollo / </tspan><tspan class="cls-10" x="216.35" y="4639">Creole coffee</tspan><tspan x="439.94" y="4639" xml:space="preserve">   .......................................... </tspan><tspan class="cls-11" x="897.91" y="4639">25.00</tspan><tspan x="0" y="4729">Café Americano / </tspan><tspan class="cls-10" x="294.9" y="4729">American coffee</tspan><tspan x="569.96" y="4729" xml:space="preserve">   ............................. </tspan><tspan class="cls-11" x="896.91" y="4729">25.00</tspan><tspan class="cls-25" x="0" y="4819">T</tspan><tspan x="18.01" y="4819">é caliente / </tspan><tspan class="cls-10" x="207.87" y="4819">Hot tea</tspan><tspan x="333.83" y="4819" xml:space="preserve">   .................................................... </tspan><tspan class="cls-11" x="892.58" y="4819">25.00</tspan><tspan class="cls-25" x="0" y="4909">T</tspan><tspan x="18.01" y="4909">é helado / </tspan><tspan class="cls-10" x="190.57" y="4909">Ice tea</tspan><tspan x="303.4" y="4909" xml:space="preserve"> .........................................................  </tspan><tspan class="cls-11" x="903.87" y="4909">25.00</tspan></tspan></text></g></g></svg>