<svg xmlns="http://www.w3.org/2000/svg" viewBox="0 0 1055.22 1046.29"><defs><style>.cls-1{opacity:0.2;}.cls-2{fill:#659633;fill-rule:evenodd;}</style></defs><g id="Capa_2" data-name="Capa 2"><g id="Capa_1-2" data-name="Capa 1"><g class="cls-1"><path class="cls-2" d="M547.28,402.34,563.92,401a3.4,3.4,0,0,1,3.71,3.29l-.07,1.49a3.41,3.41,0,0,1-4.06,2.88l-16.39-3.18c-.7-.14-1.29-.54-1.24-1.11l0-1.05C546,402.74,546.57,402.39,547.28,402.34Z"/><path class="cls-2" d="M541,413l1.78,22.16a4.52,4.52,0,0,1-4.39,5l-2-.1a4.55,4.55,0,0,1-3.84-5.42l4.27-21.83c.18-.94.71-1.71,1.47-1.66l1.4.07C540.48,411.25,540.94,412.07,541,413Z"/><path class="cls-2" d="M544.81,399.14l11.39-8a2.84,2.84,0,0,1,4.08.79l.57,1.09a2.85,2.85,0,0,1-1.7,3.8L546,401.45c-.57.2-1.15.16-1.38-.26l-.4-.79C544,400,544.33,399.48,544.81,399.14Z"/><path class="cls-2" d="M547.46,406.76l16.15,8.39a3.68,3.68,0,0,1,1.54,5.18l-.93,1.32a3.71,3.71,0,0,1-5.42.32l-13.3-12.42c-.56-.53-.88-1.23-.52-1.74l.66-.94C546,406.36,546.77,406.4,547.46,406.76Z"/><path class="cls-2" d="M545.5,410.64l11.25,18.13a4.36,4.36,0,0,1-1.58,6.17l-1.72.76a4.35,4.35,0,0,1-5.66-2.94l-5.94-20.49c-.26-.88-.15-1.77.51-2.07l1.23-.55C544.26,409.35,545,409.86,545.5,410.64Z"/><path class="cls-2" d="M535.79,413.05,527,434.22a4.67,4.67,0,0,1-6.36,2.49l-1.74-1a4.67,4.67,0,0,1-1-6.78l14.13-18c.6-.78,1.45-1.24,2.14-.83l1.24.73C536.14,411.18,536.17,412.15,535.79,413.05Z"/><path class="cls-2" d="M531.33,410.5,512,423.84a4.8,4.8,0,0,1-6.86-1.4l-.93-1.86a4.81,4.81,0,0,1,2.92-6.38l22.22-7.61c.95-.33,1.94-.25,2.29.47l.67,1.31C532.68,409.09,532.16,409.94,531.33,410.5Z"/><path class="cls-2" d="M529.42,405l-24.25,1.76a5,5,0,0,1-5.39-4.85l.14-2.14a5,5,0,0,1,5.95-4.16l23.84,4.85c1,.21,1.85.79,1.81,1.62l-.1,1.53C531.36,404.43,530.45,404.91,529.42,405Z"/><path class="cls-2" d="M530.47,397.26l-25-9.41c-3.19-1.19-4.43-4.91-3.14-7.3l1.12-2.08c1.29-2.4,5.1-3.42,7.85-1.4l21.53,15.8c.92.66,1.49,1.63,1,2.44l-.8,1.48C532.67,397.59,531.54,397.66,530.47,397.26Z"/><path class="cls-2" d="M535.86,390.21l-19.28-20.68c-2.47-2.65-1.9-6.75.45-8.42l2-1.44c2.36-1.66,6.44-.85,8.11,2.37l13,25.12c.56,1.09.65,2.27-.15,2.82l-1.45,1C537.79,391.57,536.68,391.1,535.86,390.21Z"/><path class="cls-2" d="M544.1,385.09,534,356.33c-1.3-3.68,1-7.48,4.09-8.12l2.63-.54c3-.63,6.75,1.95,7,5.84l2,30.43c.08,1.3-.35,2.51-1.38,2.73l-1.88.37C545.42,387.25,544.54,386.32,544.1,385.09Z"/><path class="cls-2" d="M554.69,384.84l2.86-32.75c.38-4.19,4.36-6.89,7.64-6.15l2.83.64c3.27.74,5.76,4.91,4.27,8.84L560.7,386.2c-.5,1.32-1.46,2.32-2.56,2.06l-2-.45C555,387.57,554.58,386.24,554.69,384.84Z"/><path class="cls-2" d="M565.28,388.38l18-29.61c2.3-3.8,7.33-4.49,10.06-2.26l2.39,1.93c2.75,2.22,3.14,7.32-.09,10.33l-25.3,23.69c-1.07,1-2.45,1.5-3.37.75l-1.68-1.37C564.33,391.1,564.5,389.65,565.28,388.38Z"/><path class="cls-2" d="M573.13,397.4l31.3-20.7c4-2.64,9.25-1,10.91,2.45l1.44,3c1.67,3.45-.3,8.62-4.87,10.09l-35.73,11.49c-1.52.49-3.11.33-3.66-.81l-1-2.13C570.94,399.62,571.8,398.29,573.13,397.4Z"/><path class="cls-2" d="M577.14,408.59l39.93-8.2c5.11-1,9.74,2.75,10,6.9l.24,3.6c.29,4.14-3.8,8.56-9,8.2l-40.68-2.87c-1.74-.14-3.27-.93-3.36-2.32l-.18-2.55C574,410,575.42,409,577.14,408.59Z"/><path class="cls-2" d="M576.88,422l42.19,5.28c5.41.68,8.71,6,7.6,10.15l-1,3.64c-1.12,4.19-6.62,7.19-11.64,5.09l-39.23-16.48c-1.67-.68-2.9-2-2.54-3.39l.69-2.58C573.36,422.27,575.07,421.74,576.88,422Z"/><path class="cls-2" d="M571.88,433.86,610.62,456c5,2.83,6,9.26,3.25,12.88l-2.4,3.12c-2.78,3.62-9.31,4.3-13.32.26L566.8,440.49c-1.34-1.36-2-3.12-1.1-4.32l1.71-2.23C568.34,432.73,570.22,432.92,571.88,433.86Z"/><path class="cls-2" d="M562.68,442.92l29.89,40.33c3.82,5.16,2,12.29-2.49,14.75l-3.89,2.13c-4.48,2.48-11.53.21-13.82-5.77l-17.91-46.92c-.78-2-.69-4.12.83-4.93l2.76-1.52C559.56,440.15,561.39,441.19,562.68,442.92Z"/><path class="cls-2" d="M548.07,447.77l15.11,50.83c1.92,6.5-2.47,12.91-7.81,13.74l-4.62.71c-5.36.82-11.54-4-11.65-10.74l-.84-53c0-2.26.82-4.33,2.61-4.6l3.3-.51C546,443.9,547.42,445.58,548.07,447.77Z"/><path class="cls-2" d="M530.94,449.73l-2.15,53c-.28,6.77-6.5,11.43-11.82,10.48l-4.6-.82c-5.34-.95-9.65-7.48-7.56-13.92L521.17,448c.7-2.15,2.18-3.82,4-3.52l3.28.59C530.2,445.38,531,447.46,530.94,449.73Z"/><path class="cls-2" d="M513.57,443l-22.48,51.21c-2.88,6.54-10.5,8.9-15.11,6.08l-4-2.44c-4.62-2.82-6.12-10.76-1.68-16.34l34.8-43.69c1.49-1.87,3.52-3,5.06-2l2.85,1.73C514.55,438.51,514.53,440.84,513.57,443Z"/><path class="cls-2" d="M500.43,433l-41,40.74c-5.25,5.22-13.46,4.6-16.83.14l-2.92-3.86c-3.38-4.46-1.83-12.66,4.57-16.34l50-28.86c2.14-1.24,4.51-1.54,5.64-.05l2.08,2.74C503.1,429.05,502.19,431.28,500.43,433Z"/><path class="cls-2" d="M491.66,418.42l-52.82,23.47c-6.75,3-14.21-.5-15.78-5.85l-1.34-4.66c-1.57-5.36,2.82-12.48,10.09-13.64l57-9.17c2.44-.39,4.76.17,5.28,2l1,3.29C495.57,415.64,493.92,417.41,491.66,418.42Z"/><path class="cls-2" d="M487.66,399.47,430,403.73c-7.36.54-13.2-5.27-12.86-10.85l.3-4.84c.35-5.58,6.87-10.79,14.11-9.44l56.72,10.64c2.43.45,4.44,1.77,4.33,3.65l-.22,3.44C492.27,398.18,490.13,399.31,487.66,399.47Z"/><path class="cls-2" d="M492.54,377.12,433.67,365c-7.52-1.55-11.71-9-9.79-14.51l1.67-4.75c1.92-5.48,9.92-8.85,16.78-5.44l53.74,26.72c2.3,1.14,3.93,3,3.28,4.87l-1.18,3.37C497.52,377.13,495.06,377.64,492.54,377.12Z"/><path class="cls-2" d="M500.22,361.33,449.05,326c-6.54-4.52-7.51-13.35-3.45-17.78l3.51-3.85c4.06-4.45,13-4.42,18.2,1.61l40.35,47.22c1.72,2,2.51,4.47,1.15,6l-2.48,2.72C505,363.36,502.42,362.85,500.22,361.33Z"/><path class="cls-2" d="M516.41,346l-41-50.95c-5.26-6.52-3.59-15.7,1.83-19l4.69-2.84c5.41-3.26,14.48-.54,17.87,7.06L526.35,340c1.14,2.55,1.2,5.25-.61,6.36l-3.33,2C520.59,349.48,518.16,348.2,516.41,346Z"/><path class="cls-2" d="M537.84,337.44,512.57,275.8c-3.24-7.88,1-16.35,7.29-18l5.4-1.41c6.24-1.62,14.28,3.66,15.38,12.08l8.64,65.95c.36,2.82-.35,5.49-2.44,6l-3.85,1C540.91,342,538.92,340.07,537.84,337.44Z"/><path class="cls-2" d="M560.68,334.23,551.78,267c-1.14-8.59,5.28-15.82,11.83-15.8h5.7c6.56,0,13.1,7.31,12,15.89l-8.6,67.19c-.37,2.87-1.77,5.29-4,5.29h-4C562.52,339.55,561.07,337.11,560.68,334.23Z"/><path class="cls-2" d="M583.43,338l10.46-68.34c1.34-8.75,9.67-14,16.08-12.09l5.56,1.64c6.42,1.89,10.74,10.89,7.23,19L595.2,341.47c-1.18,2.7-3.24,4.7-5.4,4.06l-3.94-1.18C583.7,343.72,583,340.93,583.43,338Z"/><path class="cls-2" d="M603.9,348l31.69-63.41c4-8.12,13.84-10.61,19.5-6.75l4.92,3.35c5.65,3.86,7.06,14,1.09,20.79l-46.81,53.1c-2,2.28-4.64,3.56-6.53,2.26L604.27,355C602.37,353.67,602.55,350.71,603.9,348Z"/><path class="cls-2" d="M619.37,365.31l52.9-49.19c6.77-6.29,17-5.18,21,.53l3.48,5c4,5.71,1.75,15.9-6.38,20.23l-63.64,33.94c-2.73,1.47-5.71,1.74-7-.17l-2.48-3.51C615.88,370.18,617.1,367.41,619.37,365.31Z"/><path class="cls-2" d="M631.91,388.06l66-36.09c8.42-4.62,18.47-.87,21.08,5.92l2.25,5.88c2.6,6.79-2.32,16.49-11.62,18.78l-72.91,18c-3.13.77-6.21.3-7.08-2L628,394.35C627.14,392.07,629.09,389.6,631.91,388.06Z"/><path class="cls-2" d="M639.89,414.52l74.44-18.06c9.52-2.3,18.4,4,19.16,11.41l.67,6.39c.76,7.37-6.64,15.6-16.4,15.38l-76.48-1.59c-3.27-.07-6.17-1.36-6.43-3.82l-.47-4.54C634.12,417.21,636.69,415.3,639.89,414.52Z"/><path class="cls-2" d="M639.38,441.85l77.92,1.77c10,.23,17,8.8,15.85,16.24l-1,6.45c-1.18,7.45-10.61,13.6-20.16,10.84L637.2,455.52c-3.2-.93-5.71-2.95-5.31-5.45l.73-4.59C633,443,636,441.77,639.38,441.85Z"/><path class="cls-2" d="M631.91,468.39l75.65,23c9.67,2.92,14.25,13.23,11.06,20.19l-2.76,6c-3.18,6.95-14.07,10.39-22.66,5.08l-67.14-41.53c-2.87-1.78-4.79-4.45-3.72-6.77l2-4.28C625.38,467.77,628.66,467.4,631.91,468.39Z"/><path class="cls-2" d="M616.42,492.12l66.48,45c8.5,5.75,9.86,17.11,4.68,22.9l-4.49,5c-5.17,5.77-16.77,5.85-23.49-1.87l-52.68-60.43c-2.25-2.59-3.3-5.74-1.56-7.69l3.18-3.55C610.27,489.55,613.57,490.19,616.42,492.12Z"/><path class="cls-2" d="M595.56,511.86l52.29,62.8c6.68,8,4.79,19.53-1.92,23.72L640.14,602c-6.7,4.19-18.07,1-22.46-8.46l-34.4-74c-1.47-3.17-1.61-6.55.64-8L588,509C590.28,507.62,593.32,509.17,595.56,511.86Z"/><path class="cls-2" d="M566.59,526.1,605,600.62c4.91,9.53.47,20.61-7.18,23.32l-6.61,2.35c-7.65,2.73-18.31-3-20.62-13.45l-18.06-81.77c-.77-3.48-.15-6.9,2.42-7.8l4.68-1.68C562.23,520.69,564.93,522.91,566.59,526.1Z"/><path class="cls-2" d="M538.32,532.77l16.38,83.8c2.09,10.71-5.41,20.3-13.66,20.77l-7.15.43c-8.23.48-17-8.17-16.32-19l5.62-85.09c.23-3.63,1.81-6.81,4.58-7l5.07-.29C535.6,526.22,537.61,529.16,538.32,532.77Z"/><path class="cls-2" d="M504.76,530.89l-1.07,88.16c-.13,11.28-9.73,19.37-18.16,18.14l-7.31-1.09c-8.44-1.25-15.51-11.85-12.5-22.67l23.57-84.83c1-3.62,3.25-6.5,6.09-6.07l5.18.77C503.39,523.71,504.8,527.12,504.76,530.89Z"/><path class="cls-2" d="M475.64,520.92l-21.56,89.52C451.33,621.89,439,627.57,430,624L422.27,621c-8.92-3.54-14.21-16.23-8.42-26.45l45.4-80.09c1.94-3.42,5.07-5.74,8.07-4.55l5.5,2.16C475.81,513.24,476.57,517.09,475.64,520.92Z"/><path class="cls-2" d="M448.21,505.13,403,590.41c-5.78,10.91-19.84,13.45-28,7.53l-7.06-5.13c-8.15-5.93-10.2-20.18-1.65-29.07l67-69.49c2.87-3,6.65-4.5,9.38-2.51l5,3.65C450.39,497.37,450.15,501.46,448.21,505.13Z"/><path class="cls-2" d="M429.55,480.29,356.2,559.62c-9.38,10.14-25.75,8.13-33.29-1.28l-6.51-8.14c-7.51-9.4-6-26,5.93-32.92L415.75,463c4-2.32,8.64-2.73,11.16.42l4.62,5.79C434.06,472.4,432.71,476.89,429.55,480.29Z"/><path class="cls-2" d="M411.42,448.39,315,512.7c-12.32,8.22-29.17,1.11-34.89-11.38l-4.95-10.83c-5.73-12.48-.18-30.09,14.08-34l111.67-31c4.78-1.32,9.78-.38,11.7,3.81l3.53,7.7C418.06,441.17,415.55,445.63,411.42,448.39Z"/><path class="cls-2" d="M400.56,411.47,278.7,446.23c-15.58,4.44-30.74-8.6-32.53-23.52l-1.54-12.93c-1.79-14.91,9.87-31.38,26-30.73l126.61,5.06c5.42.22,10.31,2.87,10.9,7.87l1.11,9.19C409.88,406.18,405.78,410,400.56,411.47Z"/><path class="cls-2" d="M398.74,367.65,261.94,370c-17.5.3-29.69-17.52-27.4-33.57l2-13.92c2.28-16.05,19-30,35.71-24.84l130.71,40.49c5.59,1.73,9.95,5.86,9.19,11.25l-1.42,9.88C410,364.71,404.61,367.55,398.74,367.65Z"/><path class="cls-2" d="M411.72,325.72,270.25,281.38c-18.1-5.67-23.67-28.63-15.07-44.77l7.45-14c8.63-16.15,31.25-25.12,46.37-14l118.51,87.43c5.07,3.74,7.94,9.59,5.05,15l-5.3,9.94C424.37,326.45,417.78,327.61,411.72,325.72Z"/><path class="cls-2" d="M439.93,288.62,308.31,195.4c-16.83-11.93-14.66-38.43-.1-53l12.6-12.66c14.56-14.61,41.19-17,53-.1l92.78,132.22c4,5.65,4.91,12.88,0,17.79l-9,9C452.83,293.49,445.57,292.63,439.93,288.62Z"/><path class="cls-2" d="M481.11,252.83,377.8,118.7c-13.21-17.15-2.86-43.06,16.25-53.24l16.54-8.82c19.12-10.17,46.58-4.34,53.26,16.25l52.32,161.28c2.23,6.89,1,14.44-5.46,17.85L499,258.28C492.56,261.7,485.53,258.58,481.11,252.83Z"/><path class="cls-2" d="M532.46,235,474.11,64.31C466.64,42.5,486,19.89,508.71,16.16l19.71-3.23c22.75-3.73,48.47,11.54,48.15,34.6l-2.37,180.6c-.1,7.72-4,14.89-11.59,16.15l-14,2.28C541,247.81,535,242.28,532.46,235Z"/><path class="cls-2" d="M594.37,233.31,592.48,38.25c-.24-24.95,27.27-41.6,51.9-37.68L665.73,4c24.63,3.92,45.83,28.33,37.67,51.91L639.57,240.48c-2.74,7.9-9.15,13.94-17.42,12.64L607,250.71C598.74,249.4,594.45,241.67,594.37,233.31Z"/><path class="cls-2" d="M653.56,250.64l64.53-198c8.26-25.31,41.75-32.79,65.33-20.44l20.44,10.69c23.59,12.34,36.72,44.27,20.44,65.35l-127.46,165c-5.45,7.06-14,11-21.91,6.85l-14.51-7.59C652.5,268.41,650.8,259.13,653.56,250.64Z"/><path class="cls-2" d="M703.35,287.65,838.78,121.54c17.33-21.25,52.26-16,70.32,4.62L924.75,144c18.08,20.62,18.82,56.13-4.62,70.33L736.49,325.45c-7.86,4.76-17.52,5.37-23.58-1.54L701.8,311.22C695.75,304.31,697.56,294.77,703.35,287.65Z"/><path class="cls-2" d="M739.62,346.8,932.19,224c24.64-15.69,58.22,1.32,69.59,28.21l9.87,23.3c11.37,26.88.26,63.07-28.2,69.58l-222.94,51c-9.53,2.18-19.52-.44-23.34-9.45l-7-16.55C726.35,361.11,731.37,352.05,739.62,346.8Z"/><path class="cls-2" d="M759.46,417.36,993.1,359.73c29.87-7.36,57.67,20.94,60,51.62l2,26.58c2.3,30.68-21,63.07-51.61,60L763.66,473.66c-10.26-1-19.34-7-20.11-17.3l-1.42-18.88C741.37,427.18,749.43,419.83,759.46,417.36Z"/><path class="cls-2" d="M738,549.83,969.25,657.65c29.57,13.79,64.28-9.95,73-41.41l7.51-27.25c8.68-31.44-8.92-69.91-41.4-73L753.91,492.14c-10.88-1-21.55,3.33-24.45,13.88l-5.35,19.35C721.21,535.92,728.09,545.21,738,549.83Z"/><path class="cls-2" d="M688.15,610.83,875,802.26c23.9,24.47,66.75,14,86.9-13.59l17.47-23.92c20.17-27.64,17.14-71.89-13.59-86.91L725.14,560.13c-10.29-5-22.37-4.71-29.12,4.56l-12.42,17C676.84,591,680.15,602.62,688.15,610.83Z"/><path class="cls-2" d="M616.94,656.76,733.68,908.05c14.93,32.13,60.38,36.67,89.58,16.61l25.3-17.38c29.19-20.06,41.46-64.33,16.6-89.57L670.52,620c-8.33-8.46-20.25-12.3-30-5.57l-18,12.34C612.72,633.46,611.93,646,616.94,656.76Z"/><path class="cls-2" d="M526,682.22,560.84,968c4.48,36.55,47.94,55.59,83.23,45.12l30.56-9.08c35.29-10.48,61.61-50.3,45.12-83.22L590.68,663c-5.52-11-16.07-18.62-27.9-15.11l-21.71,6.44C529.24,657.83,524.44,670,526,682.22Z"/><path class="cls-2" d="M273.21,573.27,20.59,780.35c-32.29,26.49-24.13,79.7,7.35,107.16l27.25,23.76c31.49,27.44,85.63,28.45,107.16-7.34L331,623.63c7.22-12,8.1-26.71-2.45-35.92l-19.37-16.89C298.57,561.63,284,564.41,273.21,573.27Z"/><path class="cls-2" d="M347,634.55,183.92,905.11c-20.85,34.6,3.31,80.62,40.43,95.59l32.16,13c37.11,15,86.4-1.53,94.56-41.18L415.14,662c2.74-13.28-1.11-27-13.55-32l-22.86-9.21C366.28,615.74,354,622.94,347,634.55Z"/><path class="cls-2" d="M431.18,672.79,372.06,972.38c-7.55,38.33,30,71.87,69,72.95l33.81.93c39,1.08,78.68-30.38,72.93-69l-45-302.48c-1.93-12.94-10-24.08-23.13-24.46l-24-.66C442.55,649.3,433.71,660,431.18,672.79Z"/></g></g></g></svg>